<svg xmlns="http://www.w3.org/2000/svg" xmlns:xlink="http://www.w3.org/1999/xlink" version="1.1" width="1000" height="1000" viewBox="0 0 1000 1000" xml:space="preserve">
<desc>Created with Fabric.js 3.5.0</desc>
<defs>
</defs>
<rect x="0" y="0" width="100%" height="100%" fill="rgba(75,47,75,0)"/>
<g transform="matrix(3.7424 0 0 3.7424 500.0042 500.0043)" id="570453">
<path style="stroke: rgb(0,0,0); stroke-width: 10; stroke-dasharray: none; stroke-linecap: butt; stroke-dashoffset: 0; stroke-linejoin: miter; stroke-miterlimit: 4; is-custom-font: none; font-file-url: none; fill: rgb(182,176,176); fill-opacity: 0.95; fill-rule: nonzero; opacity: 1;" vector-effect="non-scaling-stroke" transform=" translate(-127.9082, -129.6326)" d="M 147.669 46.3756 L 223.43 31.9138 L 209.258 109.523 L 208.945 111.236 L 209.764 112.772 L 246.729 182.162 L 170.214 192.357 L 168.429 192.595 L 167.205 193.916 L 114.278 251.092 L 81.2013 179.949 L 80.4518 178.337 L 78.853 177.56 L 9.08746 143.653 L 65.2234 89.3307 L 66.4844 88.1105 L 66.7063 86.3698 L 76.6729 8.1731 L 144.299 45.8326 L 145.886 46.7161 L 147.669 46.3756 Z" stroke-linecap="round"/>
</g>
<g transform="matrix(1 0 0 1 499.5 455.1081)" style="filter: url(#SVGID_40);" id="546636">
<filter id="SVGID_40" y="-34.87%" height="169.74%" x="-21.9%" width="143.8%">
	<feGaussianBlur in="SourceAlpha" stdDeviation="5"/>
	<feOffset dx="10" dy="10" result="oBlur"/>
	<feFlood flood-color="rgb(0,0,0)" flood-opacity="1"/>
	<feComposite in2="oBlur" operator="in"/>
	<feMerge>
		<feMergeNode/>
		<feMergeNode in="SourceGraphic"/>
	</feMerge>
</filter>
		
<path xml:space="preserve" font-family="Artifika" font-size="119" font-style="normal" font-weight="normal" style="stroke: none; stroke-width: 0; stroke-dasharray: none; stroke-linecap: butt; stroke-dashoffset: 0; stroke-linejoin: miter; stroke-miterlimit: 4; is-custom-font: none; font-file-url: none; fill: rgb(255,255,255); fill-rule: nonzero; opacity: 1; white-space: pre;" d="M-233.70 37.38L-233.70 37.38Q-236.43 37.15-237.34 36.02Q-238.24 34.88-238.24 32.39L-238.24 32.39L-238.24-37.69L-249.33-37.69L-249.33-42.34Q-247.59-42.92-243.78-43.53Q-239.98-44.14-234.87-44.66Q-229.75-45.19-223.65-45.50Q-217.55-45.82-211.22-45.82L-211.22-45.82Q-208.49-45.82-205.20-45.77Q-201.92-45.71-198.64-45.50Q-195.35-45.30-192.27-44.95Q-189.19-44.60-186.81-43.96Q-184.43-43.33-183.01-42.37Q-181.58-41.41-181.58-40.07L-181.58-40.07Q-181.58-39.49-182.31-37.98Q-183.04-36.47-183.97-34.81Q-184.90-33.16-185.77-31.73Q-186.64-30.31-186.93-29.96L-186.93-29.96Q-186.93-30.02-188.47-31.07Q-190.01-32.11-193.12-33.36Q-196.23-34.61-200.87-35.66Q-205.52-36.70-211.68-36.76L-211.68-36.76L-224.58-36.88L-224.58-9.39L-193.84-9.39L-193.84-6.55Q-193.84-3.47-195.15-2.33Q-196.46-1.20-199.31-1.20L-199.31-1.20L-224.58-1.20L-224.58 29.19L-214.06 29.19Q-206.28 29.19-198.43 28.14Q-190.59 27.10-183.04 24.66L-183.04 24.66Q-183.04 24.72-182.86 25.27Q-182.69 25.82-182.45 26.75Q-182.22 27.68-182.02 28.87Q-181.82 30.06-181.82 31.22L-181.82 31.22Q-181.82 33.95-183.21 35.35Q-184.60 36.74-187.68 37.35Q-190.76 37.96-195.79 38.02Q-200.82 38.08-208.02 38.08L-208.02 38.08Q-211.97 38.08-215.95 38.02Q-219.93 37.96-223.39 37.88Q-226.85 37.79-229.55 37.64Q-232.25 37.50-233.70 37.38Z"/><path xml:space="preserve" font-family="Artifika" font-size="119" font-style="normal" font-weight="normal" style="stroke: none; stroke-width: 0; stroke-dasharray: none; stroke-linecap: butt; stroke-dashoffset: 0; stroke-linejoin: miter; stroke-miterlimit: 4; is-custom-font: none; font-file-url: none; fill: rgb(255,255,255); fill-rule: nonzero; opacity: 1; white-space: pre;" d="M-102.91-5.91L-102.91 19.89Q-102.91 23.50-102.70 26.23Q-102.50 28.96-102.24 30.99Q-101.98 33.02-101.69 34.39Q-101.40 35.76-101.22 36.57L-101.22 36.57Q-102.04 37.03-103.08 37.35Q-104.13 37.67-105.26 37.93Q-106.39 38.20-107.50 38.31Q-108.60 38.43-109.53 38.43L-109.53 38.43Q-111.04 38.43-112.26 38.17Q-113.48 37.91-114.41 37.27Q-115.34 36.63-115.84 35.55Q-116.33 34.48-116.33 32.85L-116.33 32.85L-116.33-5.09Q-116.33-7.47-116.50-9.33Q-116.68-11.19-117.35-12.50Q-118.01-13.81-119.38-14.51Q-120.75-15.20-123.13-15.20L-123.13-15.20Q-124.70-15.20-126.67-14.97Q-128.65-14.74-130.68-14.36Q-132.71-13.98-134.63-13.55Q-136.55-13.11-138.06-12.73Q-139.57-12.36-140.47-12.12Q-141.37-11.89-141.31-11.89L-141.31-11.89L-141.31 19.89Q-141.31 23.50-141.14 26.23Q-140.97 28.96-140.70 30.99Q-140.44 33.02-140.15 34.39Q-139.86 35.76-139.69 36.57L-139.69 36.57Q-140.50 37.03-141.52 37.35Q-142.53 37.67-143.67 37.93Q-144.80 38.20-145.93 38.31Q-147.07 38.43-148.00 38.43L-148.00 38.43Q-149.51 38.43-150.73 38.17Q-151.95 37.91-152.88 37.27Q-153.81 36.63-154.30 35.55Q-154.80 34.48-154.80 32.85L-154.80 32.85L-154.80-16.31L-165.02-16.31L-165.02-20.66Q-163.80-21.19-161.59-21.65Q-159.39-22.12-156.74-22.41Q-154.10-22.70-151.34-22.87Q-148.58-23.05-146.31-23.05L-146.31-23.05Q-145.09-23.05-144.16-22.99Q-143.23-22.93-142.59-22.64Q-141.95-22.35-141.63-21.74Q-141.31-21.13-141.31-19.97L-141.31-19.97L-141.31-17.12Q-141.31-17.06-140.30-17.56Q-139.28-18.05-137.51-18.81Q-135.74-19.56-133.38-20.43Q-131.03-21.30-128.39-22.09Q-125.74-22.87-122.92-23.40Q-120.11-23.92-117.43-23.92L-117.43-23.92Q-115.40-23.92-113.42-23.60Q-111.45-23.28-109.73-22.52Q-108.02-21.77-106.65-20.43Q-105.29-19.10-104.53-17.12L-104.53-17.12Q-104.53-17.06-103.49-17.56Q-102.44-18.05-100.64-18.81Q-98.84-19.56-96.46-20.43Q-94.07-21.30-91.37-22.09Q-88.67-22.87-85.85-23.40Q-83.03-23.92-80.30-23.92L-80.30-23.92Q-75.19-23.92-72.05-22.61Q-68.92-21.30-67.23-18.92Q-65.55-16.54-64.99-13.23Q-64.44-9.92-64.44-5.91L-64.44-5.91L-64.44 31.57L-54.33 31.57L-54.33 35.93Q-55.32 36.45-57.03 36.92Q-58.75 37.38-60.84 37.73Q-62.93 38.08-65.20 38.25Q-67.46 38.43-69.55 38.43L-69.55 38.43Q-71.36 38.43-72.87 38.23Q-74.38 38.02-75.51 37.41Q-76.64 36.80-77.28 35.73Q-77.92 34.65-77.92 32.85L-77.92 32.85L-77.92-5.09Q-77.92-7.47-78.10-9.33Q-78.27-11.19-78.94-12.50Q-79.61-13.81-80.97-14.51Q-82.34-15.20-84.66-15.20L-84.66-15.20Q-86.17-15.20-88.79-14.83Q-91.40-14.45-94.22-13.95Q-97.04-13.46-99.54-12.94Q-102.04-12.41-103.26-12.12L-103.26-12.12Q-102.91-9.22-102.91-5.91L-102.91-5.91Z"/><path xml:space="preserve" font-family="Artifika" font-size="119" font-style="normal" font-weight="normal" style="stroke: none; stroke-width: 0; stroke-dasharray: none; stroke-linecap: butt; stroke-dashoffset: 0; stroke-linejoin: miter; stroke-miterlimit: 4; is-custom-font: none; font-file-url: none; fill: rgb(255,255,255); fill-rule: nonzero; opacity: 1; white-space: pre;" d="M-15.51-11.43L-15.51 26.46Q-13.89 27.39-12.06 28.41Q-10.23 29.42-8.25 30.24Q-6.28 31.05-4.16 31.60Q-2.03 32.15 0.17 32.15L0.17 32.15Q4.24 32.15 7.20 30.18Q10.17 28.20 12.09 24.80Q14.00 21.40 14.93 16.87Q15.86 12.34 15.86 7.28L15.86 7.28Q15.86 1.65 15.28-2.86Q14.70-7.36 13.25-10.50Q11.79-13.63 9.38-15.32Q6.97-17.00 3.25-17.00L3.25-17.00Q0.12-17.00-3.14-16.13Q-6.39-15.26-9.18-14.21L-9.18-14.21Q-12.38-12.99-15.51-11.43L-15.51-11.43ZM-13.89 64.17L-13.89 64.17Q-14.70 64.63-15.72 64.98Q-16.74 65.33-17.87 65.56Q-19.00 65.80-20.13 65.94Q-21.27 66.09-22.20 66.09L-22.20 66.09Q-25.16 66.09-27.08 64.78Q-29.00 63.47-29.00 60.22L-29.00 60.22L-29.00-16.31L-39.34-16.31L-39.34-20.66Q-38.12-21.19-35.91-21.65Q-33.70-22.12-31.03-22.41Q-28.36-22.70-25.57-22.87Q-22.78-23.05-20.51-23.05L-20.51-23.05Q-19.29-23.05-18.36-22.99Q-17.43-22.93-16.79-22.64Q-16.15-22.35-15.83-21.74Q-15.51-21.13-15.51-19.97L-15.51-19.97L-15.51-17.24Q-13.83-18.46-11.53-19.68Q-9.24-20.90-6.57-21.83Q-3.89-22.76-0.93-23.34Q2.03-23.92 5.17-23.92L5.17-23.92Q12.32-23.92 17.14-21.19Q21.96-18.46 24.93-14.01Q27.89-9.57 29.14-3.96Q30.39 1.65 30.39 7.40L30.39 7.40Q30.39 11.29 29.66 15.19Q28.94 19.08 27.45 22.62Q25.97 26.17 23.74 29.19Q21.50 32.21 18.51 34.42Q15.51 36.63 11.77 37.91Q8.02 39.18 3.49 39.18L3.49 39.18Q-0.64 39.18-4.13 38.31Q-7.61 37.44-10.14 36.37Q-12.67 35.29-14.09 34.39Q-15.51 33.49-15.51 33.43L-15.51 33.43L-15.51 47.49Q-15.51 51.10-15.34 53.83Q-15.17 56.56-14.90 58.59Q-14.64 60.62-14.35 61.99Q-14.06 63.36-13.89 64.17Z"/><path xml:space="preserve" font-family="Artifika" font-size="119" font-style="normal" font-weight="normal" style="stroke: none; stroke-width: 0; stroke-dasharray: none; stroke-linecap: butt; stroke-dashoffset: 0; stroke-linejoin: miter; stroke-miterlimit: 4; is-custom-font: none; font-file-url: none; fill: rgb(255,255,255); fill-rule: nonzero; opacity: 1; white-space: pre;" d="M90.06 32.85L90.06 32.27Q90.06 32.27 89.28 32.76Q88.50 33.26 87.13 34.01Q85.76 34.77 83.93 35.67Q82.10 36.57 79.92 37.35Q77.75 38.14 75.39 38.66Q73.04 39.18 70.66 39.18L70.66 39.18Q66.88 39.18 63.45 38.17Q60.02 37.15 57.44 35.00Q54.85 32.85 53.31 29.60Q51.77 26.34 51.77 21.81L51.77 21.81Q51.77 16.81 54.01 13.33Q56.25 9.84 60.23 7.66Q64.21 5.48 69.73 4.52Q75.25 3.57 81.87 3.57L81.87 3.57L90.06 3.57L90.06-0.79Q90.06-4.16 89.80-7.27Q89.54-10.38 88.58-12.70Q87.62-15.03 85.79-16.42Q83.96-17.82 80.88-17.82L80.88-17.82Q77.92-17.82 74.96-16.74Q71.99-15.67 69.15-14.04Q66.30-12.41 63.68-10.47Q61.07-8.52 58.92-6.78L58.92-6.78L54.15-13.17Q53.28-14.21 53.28-15.32L53.28-15.32Q53.28-17.24 55.69-18.81Q58.11-20.37 61.74-21.51Q65.37-22.64 69.55-23.28Q73.74-23.92 77.34-23.92L77.34-23.92Q82.68-23.92 87.45-22.64Q92.21-21.36 95.79-18.60Q99.36-15.84 101.45-11.45Q103.54-7.07 103.54-0.79L103.54-0.79L103.54 31.57L113.65 31.57L113.65 35.93Q112.67 36.45 110.95 36.92Q109.24 37.38 107.15 37.73Q105.06 38.08 102.76 38.25Q100.47 38.43 98.37 38.43L98.37 38.43Q96.98 38.43 95.53 38.25Q94.07 38.08 92.88 37.47Q91.69 36.86 90.91 35.78Q90.12 34.71 90.06 32.85L90.06 32.85ZM74.72 30.58L74.72 30.58Q76.76 30.58 79.40 30.03Q82.05 29.48 84.43 28.84L84.43 28.84Q87.22 28.09 90.06 27.04L90.06 27.04L90.06 10.71L80.30 10.71Q78.09 10.71 75.45 11.12Q72.81 11.53 70.51 12.66Q68.22 13.79 66.65 15.83Q65.08 17.86 65.08 21.17L65.08 21.17Q65.08 23.26 65.72 24.98Q66.36 26.69 67.58 27.94Q68.80 29.19 70.60 29.89Q72.40 30.58 74.72 30.58Z"/><path xml:space="preserve" font-family="Artifika" font-size="119" font-style="normal" font-weight="normal" style="stroke: none; stroke-width: 0; stroke-dasharray: none; stroke-linecap: butt; stroke-dashoffset: 0; stroke-linejoin: miter; stroke-miterlimit: 4; is-custom-font: none; font-file-url: none; fill: rgb(255,255,255); fill-rule: nonzero; opacity: 1; white-space: pre;" d="M151.13-22.12L171.36-22.12L171.36-19.62Q171.36-17.00 170.22-15.99Q169.09-14.97 166.59-14.97L166.59-14.97L151.13-14.97L151.13 19.08Q151.13 25.59 153.52 28.93Q155.90 32.27 160.78 32.27L160.78 32.27Q162.93 32.27 165.20 31.75Q167.46 31.22 169.26 30.64Q171.06 30.06 172.20 29.63Q173.33 29.19 173.27 29.31L173.27 29.31L175.13 33.32Q173.10 34.59 171.06 35.67Q169.03 36.74 166.76 37.53Q164.50 38.31 161.88 38.75Q159.27 39.18 156.02 39.18L156.02 39.18Q151.77 39.18 148.37 37.88Q144.98 36.57 142.59 34.13Q140.21 31.69 138.93 28.14Q137.65 24.60 137.65 20.13L137.65 20.13L137.65-14.97L125.63-14.97L125.63-17.59Q125.63-20.20 126.76-21.16Q127.89-22.12 130.39-22.12L130.39-22.12L137.65-22.12L137.65-35.95Q137.65-37.52 138.15-38.59Q138.64-39.67 139.57-40.28Q140.50-40.89 141.72-41.15Q142.94-41.41 144.45-41.41L144.45-41.41Q145.38-41.41 146.52-41.29Q147.65-41.18 148.78-40.97Q149.91-40.77 150.93-40.42Q151.95-40.07 152.76-39.61L152.76-39.61Q152.59-38.79 152.30-37.43Q152.01-36.06 151.74-33.97Q151.48-31.88 151.31-28.94Q151.13-26.01 151.13-22.12L151.13-22.12Z"/><path xml:space="preserve" font-family="Artifika" font-size="119" font-style="normal" font-weight="normal" style="stroke: none; stroke-width: 0; stroke-dasharray: none; stroke-linecap: butt; stroke-dashoffset: 0; stroke-linejoin: miter; stroke-miterlimit: 4; is-custom-font: none; font-file-url: none; fill: rgb(255,255,255); fill-rule: nonzero; opacity: 1; white-space: pre;" d="M202.44 3.45L232.54 3.45Q232.89 2.29 233.01 1.12Q233.12-0.04 233.12-1.32L233.12-1.32Q233.12-4.16 232.16-7.04Q231.21-9.92 229.37-12.24Q227.54-14.56 224.84-16.02Q222.14-17.47 218.65-17.47L218.65-17.47Q214.18-17.47 211.19-15.75Q208.20-14.04 206.31-11.16Q204.42-8.29 203.55-4.48Q202.68-0.68 202.44 3.45L202.44 3.45ZM188.90 7.63L188.90 7.63Q188.90 0.72 191.14-5.06Q193.38-10.84 197.59-15.03Q201.80-19.21 207.90-21.57Q214.01-23.92 221.73-23.92L221.73-23.92Q227.54-23.92 232.13-22.06Q236.73-20.20 239.92-17.06Q243.12-13.92 244.80-9.80Q246.49-5.67 246.49-1.20L246.49-1.20Q246.49 0.89 246.14 2.98Q245.79 5.08 244.80 6.76Q243.81 8.45 242.01 9.52Q240.21 10.60 237.31 10.60L237.31 10.60L202.56 10.60Q203.14 15.83 205.29 19.83Q207.44 23.84 210.81 26.60Q214.18 29.36 218.60 30.76Q223.01 32.15 228.13 32.15L228.13 32.15Q231.61 32.15 235.33 31.54Q239.05 30.93 243.00 29.65L243.00 29.65L244.92 33.55Q242.54 35.17 239.80 36.34Q237.07 37.50 234.17 38.23Q231.26 38.95 228.24 39.30Q225.22 39.65 222.31 39.65L222.31 39.65Q215.92 39.65 209.91 37.64Q203.90 35.64 199.22 31.63Q194.54 27.62 191.72 21.64Q188.90 15.65 188.90 7.63Z"/></g>
</svg>