<svg xmlns="http://www.w3.org/2000/svg" xmlns:xlink="http://www.w3.org/1999/xlink" version="1.1" width="1000" height="1000" viewBox="0 0 1000 1000" xml:space="preserve">
<desc>Created with Fabric.js 3.5.0</desc>
<defs>
</defs>
<rect x="0" y="0" width="100%" height="100%" fill="rgba(75,47,75,0)"/>
<g transform="matrix(0.9585 0 0 0.956 169.2191 161.5697)" id="570453">
<path style="stroke: rgb(0,0,0); stroke-width: 10; stroke-dasharray: none; stroke-linecap: butt; stroke-dashoffset: 0; stroke-linejoin: miter; stroke-miterlimit: 4; is-custom-font: none; font-file-url: none; fill: rgb(182,176,176); fill-opacity: 0.95; fill-rule: nonzero; opacity: 1;" vector-effect="non-scaling-stroke" transform=" translate(-127.9082, -129.6326)" d="M 147.669 46.3756 L 223.43 31.9138 L 209.258 109.523 L 208.945 111.236 L 209.764 112.772 L 246.729 182.162 L 170.214 192.357 L 168.429 192.595 L 167.205 193.916 L 114.278 251.092 L 81.2013 179.949 L 80.4518 178.337 L 78.853 177.56 L 9.08746 143.653 L 65.2234 89.3307 L 66.4844 88.1105 L 66.7063 86.3698 L 76.6729 8.1731 L 144.299 45.8326 L 145.886 46.7161 L 147.669 46.3756 Z" stroke-linecap="round"/>
</g>
<g transform="matrix(1 0 0 1 169.2147 155.8745)" style="filter: url(#SVGID_43);" id="546636">
<filter id="SVGID_43" y="-70.57000000000001%" height="241.14000000000001%" x="-26.35%" width="152.7%">
	<feGaussianBlur in="SourceAlpha" stdDeviation="5"/>
	<feOffset dx="10" dy="10" result="oBlur"/>
	<feFlood flood-color="rgb(0,0,0)" flood-opacity="1"/>
	<feComposite in2="oBlur" operator="in"/>
	<feMerge>
		<feMergeNode/>
		<feMergeNode in="SourceGraphic"/>
	</feMerge>
</filter>
		
<path xml:space="preserve" font-family="Artifika" font-size="35" font-style="normal" font-weight="normal" style="stroke: none; stroke-width: 0; stroke-dasharray: none; stroke-linecap: butt; stroke-dashoffset: 0; stroke-linejoin: miter; stroke-miterlimit: 4; is-custom-font: none; font-file-url: none; fill: rgb(255,255,255); fill-rule: nonzero; opacity: 1; white-space: pre;" d="M-68.74 10.99L-68.74 10.99Q-69.54 10.93-69.80 10.59Q-70.07 10.26-70.07 9.53L-70.07 9.53L-70.07-11.09L-73.33-11.09L-73.33-12.45Q-72.82-12.62-71.70-12.80Q-70.58-12.98-69.08-13.14Q-67.57-13.29-65.78-13.38Q-63.99-13.48-62.12-13.48L-62.12-13.48Q-61.32-13.48-60.35-13.46Q-59.39-13.44-58.42-13.38Q-57.46-13.32-56.55-13.22Q-55.65-13.12-54.94-12.93Q-54.24-12.74-53.83-12.46Q-53.41-12.18-53.41-11.79L-53.41-11.79Q-53.41-11.61-53.62-11.17Q-53.83-10.73-54.11-10.24Q-54.38-9.75-54.64-9.33Q-54.89-8.91-54.98-8.81L-54.98-8.81Q-54.98-8.83-55.43-9.14Q-55.88-9.44-56.80-9.81Q-57.71-10.18-59.08-10.49Q-60.45-10.79-62.26-10.81L-62.26-10.81L-66.05-10.85L-66.05-2.76L-57.01-2.76L-57.01-1.93Q-57.01-1.02-57.40-0.69Q-57.78-0.35-58.62-0.35L-58.62-0.35L-66.05-0.35L-66.05 8.59L-62.96 8.59Q-60.67 8.59-58.36 8.28Q-56.06 7.97-53.83 7.25L-53.83 7.25Q-53.83 7.27-53.78 7.43Q-53.73 7.59-53.66 7.87Q-53.59 8.14-53.53 8.49Q-53.48 8.84-53.48 9.18L-53.48 9.18Q-53.48 9.99-53.89 10.40Q-54.30 10.81-55.20 10.99Q-56.11 11.17-57.59 11.18Q-59.06 11.20-61.18 11.20L-61.18 11.20Q-62.34 11.20-63.52 11.18Q-64.69 11.17-65.70 11.14Q-66.72 11.11-67.51 11.07Q-68.31 11.03-68.74 10.99Z"/><path xml:space="preserve" font-family="Artifika" font-size="35" font-style="normal" font-weight="normal" style="stroke: none; stroke-width: 0; stroke-dasharray: none; stroke-linecap: butt; stroke-dashoffset: 0; stroke-linejoin: miter; stroke-miterlimit: 4; is-custom-font: none; font-file-url: none; fill: rgb(255,255,255); fill-rule: nonzero; opacity: 1; white-space: pre;" d="M-30.27-1.74L-30.27 5.85Q-30.27 6.91-30.21 7.71Q-30.15 8.52-30.07 9.12Q-29.99 9.71-29.91 10.11Q-29.82 10.52-29.77 10.76L-29.77 10.76Q-30.01 10.89-30.32 10.99Q-30.63 11.08-30.96 11.16Q-31.29 11.23-31.62 11.27Q-31.94 11.30-32.21 11.30L-32.21 11.30Q-32.66 11.30-33.02 11.23Q-33.38 11.15-33.65 10.96Q-33.92 10.77-34.07 10.46Q-34.21 10.14-34.21 9.66L-34.21 9.66L-34.21-1.50Q-34.21-2.20-34.27-2.75Q-34.32-3.29-34.51-3.68Q-34.71-4.06-35.11-4.27Q-35.51-4.47-36.21-4.47L-36.21-4.47Q-36.68-4.47-37.26-4.40Q-37.84-4.33-38.44-4.22Q-39.03-4.11-39.60-3.98Q-40.16-3.86-40.61-3.75Q-41.05-3.63-41.32-3.57Q-41.58-3.50-41.56-3.50L-41.56-3.50L-41.56 5.85Q-41.56 6.91-41.51 7.71Q-41.46 8.52-41.38 9.12Q-41.31 9.71-41.22 10.11Q-41.14 10.52-41.08 10.76L-41.08 10.76Q-41.32 10.89-41.62 10.99Q-41.92 11.08-42.26 11.16Q-42.59 11.23-42.92 11.27Q-43.26 11.30-43.53 11.30L-43.53 11.30Q-43.97 11.30-44.33 11.23Q-44.69 11.15-44.96 10.96Q-45.24 10.77-45.38 10.46Q-45.53 10.14-45.53 9.66L-45.53 9.66L-45.53-4.80L-48.54-4.80L-48.54-6.08Q-48.18-6.23-47.53-6.37Q-46.88-6.51-46.10-6.59Q-45.32-6.68-44.51-6.73Q-43.70-6.78-43.03-6.78L-43.03-6.78Q-42.67-6.78-42.40-6.76Q-42.13-6.74-41.94-6.66Q-41.75-6.57-41.66-6.39Q-41.56-6.21-41.56-5.87L-41.56-5.87L-41.56-5.04Q-41.56-5.02-41.26-5.16Q-40.96-5.31-40.44-5.53Q-39.92-5.75-39.23-6.01Q-38.54-6.27-37.76-6.50Q-36.98-6.73-36.15-6.88Q-35.33-7.03-34.54-7.03L-34.54-7.03Q-33.94-7.03-33.36-6.94Q-32.78-6.85-32.27-6.62Q-31.77-6.40-31.37-6.01Q-30.97-5.62-30.75-5.04L-30.75-5.04Q-30.75-5.02-30.44-5.16Q-30.13-5.31-29.60-5.53Q-29.07-5.75-28.37-6.01Q-27.67-6.27-26.87-6.50Q-26.08-6.73-25.25-6.88Q-24.42-7.03-23.62-7.03L-23.62-7.03Q-22.11-7.03-21.19-6.65Q-20.27-6.27-19.77-5.57Q-19.28-4.86-19.12-3.89Q-18.95-2.92-18.95-1.74L-18.95-1.74L-18.95 9.29L-15.98 9.29L-15.98 10.57Q-16.27 10.72-16.77 10.86Q-17.28 10.99-17.89 11.10Q-18.51 11.20-19.18 11.25Q-19.84 11.30-20.46 11.30L-20.46 11.30Q-20.99 11.30-21.43 11.24Q-21.88 11.18-22.21 11.00Q-22.54 10.82-22.73 10.51Q-22.92 10.19-22.92 9.66L-22.92 9.66L-22.92-1.50Q-22.92-2.20-22.97-2.75Q-23.02-3.29-23.22-3.68Q-23.41-4.06-23.82-4.27Q-24.22-4.47-24.90-4.47L-24.90-4.47Q-25.34-4.47-26.11-4.36Q-26.88-4.25-27.71-4.10Q-28.54-3.96-29.28-3.80Q-30.01-3.65-30.37-3.57L-30.37-3.57Q-30.27-2.71-30.27-1.74L-30.27-1.74Z"/><path xml:space="preserve" font-family="Artifika" font-size="35" font-style="normal" font-weight="normal" style="stroke: none; stroke-width: 0; stroke-dasharray: none; stroke-linecap: butt; stroke-dashoffset: 0; stroke-linejoin: miter; stroke-miterlimit: 4; is-custom-font: none; font-file-url: none; fill: rgb(255,255,255); fill-rule: nonzero; opacity: 1; white-space: pre;" d="M-4.56-3.36L-4.56 7.78Q-4.08 8.06-3.55 8.35Q-3.01 8.65-2.43 8.89Q-1.85 9.13-1.22 9.29Q-0.60 9.46 0.05 9.46L0.05 9.46Q1.25 9.46 2.12 8.88Q2.99 8.29 3.55 7.29Q4.12 6.30 4.39 4.96Q4.67 3.63 4.67 2.14L4.67 2.14Q4.67 0.48 4.49-0.84Q4.32-2.16 3.90-3.09Q3.47-4.01 2.76-4.51Q2.05-5.00 0.96-5.00L0.96-5.00Q0.03-5.00-0.92-4.74Q-1.88-4.49-2.70-4.18L-2.70-4.18Q-3.64-3.82-4.56-3.36L-4.56-3.36ZM-4.08 18.87L-4.08 18.87Q-4.32 19.01-4.62 19.11Q-4.92 19.22-5.26 19.28Q-5.59 19.35-5.92 19.39Q-6.26 19.44-6.53 19.44L-6.53 19.44Q-7.40 19.44-7.96 19.05Q-8.53 18.67-8.53 17.71L-8.53 17.71L-8.53-4.80L-11.57-4.80L-11.57-6.08Q-11.21-6.23-10.56-6.37Q-9.91-6.51-9.13-6.59Q-8.34-6.68-7.52-6.73Q-6.70-6.78-6.03-6.78L-6.03-6.78Q-5.67-6.78-5.40-6.76Q-5.13-6.74-4.94-6.66Q-4.75-6.57-4.66-6.39Q-4.56-6.21-4.56-5.87L-4.56-5.87L-4.56-5.07Q-4.07-5.43-3.39-5.79Q-2.72-6.15-1.93-6.42Q-1.15-6.69-0.27-6.86Q0.60-7.03 1.52-7.03L1.52-7.03Q3.62-7.03 5.04-6.23Q6.46-5.43 7.33-4.12Q8.20-2.81 8.57-1.16Q8.94 0.48 8.94 2.18L8.94 2.18Q8.94 3.32 8.72 4.47Q8.51 5.61 8.07 6.65Q7.64 7.70 6.98 8.59Q6.32 9.47 5.44 10.12Q4.56 10.77 3.46 11.15Q2.36 11.52 1.03 11.52L1.03 11.52Q-0.19 11.52-1.21 11.27Q-2.24 11.01-2.98 10.70Q-3.73 10.38-4.14 10.11Q-4.56 9.85-4.56 9.83L-4.56 9.83L-4.56 13.97Q-4.56 15.03-4.51 15.83Q-4.46 16.63-4.38 17.23Q-4.31 17.83-4.22 18.23Q-4.14 18.63-4.08 18.87Z"/><path xml:space="preserve" font-family="Artifika" font-size="35" font-style="normal" font-weight="normal" style="stroke: none; stroke-width: 0; stroke-dasharray: none; stroke-linecap: butt; stroke-dashoffset: 0; stroke-linejoin: miter; stroke-miterlimit: 4; is-custom-font: none; font-file-url: none; fill: rgb(255,255,255); fill-rule: nonzero; opacity: 1; white-space: pre;" d="M26.49 9.66L26.49 9.49Q26.49 9.49 26.26 9.64Q26.03 9.78 25.63 10.00Q25.22 10.23 24.69 10.49Q24.15 10.76 23.51 10.99Q22.87 11.22 22.17 11.37Q21.48 11.52 20.78 11.52L20.78 11.52Q19.67 11.52 18.66 11.23Q17.65 10.93 16.89 10.29Q16.13 9.66 15.68 8.70Q15.23 7.75 15.23 6.41L15.23 6.41Q15.23 4.95 15.89 3.92Q16.54 2.89 17.71 2.25Q18.88 1.61 20.51 1.33Q22.13 1.05 24.08 1.05L24.08 1.05L26.49 1.05L26.49-0.23Q26.49-1.22 26.41-2.14Q26.34-3.05 26.05-3.74Q25.77-4.42 25.23-4.83Q24.69-5.24 23.79-5.24L23.79-5.24Q22.92-5.24 22.05-4.92Q21.17-4.61 20.34-4.13Q19.50-3.65 18.73-3.08Q17.96-2.51 17.33-1.99L17.33-1.99L15.93-3.87Q15.67-4.18 15.67-4.51L15.67-4.51Q15.67-5.07 16.38-5.53Q17.09-5.99 18.16-6.33Q19.23-6.66 20.46-6.85Q21.69-7.03 22.75-7.03L22.75-7.03Q24.32-7.03 25.72-6.66Q27.12-6.28 28.17-5.47Q29.22-4.66 29.84-3.37Q30.45-2.08 30.45-0.23L30.45-0.23L30.45 9.29L33.43 9.29L33.43 10.57Q33.14 10.72 32.63 10.86Q32.13 10.99 31.51 11.10Q30.90 11.20 30.22 11.25Q29.55 11.30 28.93 11.30L28.93 11.30Q28.52 11.30 28.10 11.25Q27.67 11.20 27.32 11.02Q26.97 10.84 26.74 10.52Q26.51 10.21 26.49 9.66L26.49 9.66ZM21.98 9.00L21.98 9.00Q22.58 9.00 23.35 8.83Q24.13 8.67 24.83 8.48L24.83 8.48Q25.65 8.26 26.49 7.95L26.49 7.95L26.49 3.15L23.62 3.15Q22.97 3.15 22.19 3.27Q21.41 3.39 20.74 3.72Q20.06 4.06 19.60 4.65Q19.14 5.25 19.14 6.23L19.14 6.23Q19.14 6.84 19.33 7.35Q19.52 7.85 19.88 8.22Q20.23 8.59 20.76 8.79Q21.29 9.00 21.98 9.00Z"/><path xml:space="preserve" font-family="Artifika" font-size="35" font-style="normal" font-weight="normal" style="stroke: none; stroke-width: 0; stroke-dasharray: none; stroke-linecap: butt; stroke-dashoffset: 0; stroke-linejoin: miter; stroke-miterlimit: 4; is-custom-font: none; font-file-url: none; fill: rgb(255,255,255); fill-rule: nonzero; opacity: 1; white-space: pre;" d="M44.45-6.51L50.40-6.51L50.40-5.77Q50.40-5.00 50.07-4.70Q49.73-4.40 49.00-4.40L49.00-4.40L44.45-4.40L44.45 5.61Q44.45 7.53 45.15 8.51Q45.85 9.49 47.29 9.49L47.29 9.49Q47.92 9.49 48.59 9.34Q49.25 9.18 49.78 9.01Q50.31 8.84 50.65 8.71Q50.98 8.59 50.96 8.62L50.96 8.62L51.51 9.80Q50.91 10.17 50.31 10.49Q49.71 10.81 49.05 11.04Q48.38 11.27 47.61 11.40Q46.84 11.52 45.89 11.52L45.89 11.52Q44.64 11.52 43.64 11.14Q42.64 10.76 41.94 10.04Q41.24 9.32 40.86 8.28Q40.49 7.24 40.49 5.92L40.49 5.92L40.49-4.40L36.95-4.40L36.95-5.17Q36.95-5.94 37.28-6.22Q37.62-6.51 38.35-6.51L38.35-6.51L40.49-6.51L40.49-10.57Q40.49-11.03 40.63-11.35Q40.78-11.67 41.05-11.85Q41.32-12.03 41.68-12.10Q42.04-12.18 42.49-12.18L42.49-12.18Q42.76-12.18 43.09-12.14Q43.43-12.11 43.76-12.05Q44.09-11.99 44.39-11.89Q44.69-11.79 44.93-11.65L44.93-11.65Q44.88-11.41 44.79-11.01Q44.71-10.61 44.63-9.99Q44.55-9.38 44.50-8.51Q44.45-7.65 44.45-6.51L44.45-6.51Z"/><path xml:space="preserve" font-family="Artifika" font-size="35" font-style="normal" font-weight="normal" style="stroke: none; stroke-width: 0; stroke-dasharray: none; stroke-linecap: butt; stroke-dashoffset: 0; stroke-linejoin: miter; stroke-miterlimit: 4; is-custom-font: none; font-file-url: none; fill: rgb(255,255,255); fill-rule: nonzero; opacity: 1; white-space: pre;" d="M59.54 1.01L68.39 1.01Q68.50 0.67 68.53 0.33Q68.57-0.01 68.57-0.39L68.57-0.39Q68.57-1.22 68.28-2.07Q68.00-2.92 67.46-3.60Q66.92-4.28 66.13-4.71Q65.34-5.14 64.31-5.14L64.31-5.14Q62.99-5.14 62.11-4.63Q61.23-4.13 60.68-3.28Q60.12-2.44 59.87-1.32Q59.61-0.20 59.54 1.01L59.54 1.01ZM55.56 2.24L55.56 2.24Q55.56 0.21 56.22-1.49Q56.88-3.19 58.12-4.42Q59.35-5.65 61.15-6.34Q62.94-7.03 65.22-7.03L65.22-7.03Q66.92-7.03 68.27-6.49Q69.63-5.94 70.57-5.02Q71.50-4.10 72.00-2.88Q72.50-1.67 72.50-0.35L72.50-0.35Q72.50 0.26 72.39 0.88Q72.29 1.49 72.00 1.99Q71.71 2.48 71.18 2.80Q70.65 3.12 69.80 3.12L69.80 3.12L59.58 3.12Q59.75 4.65 60.38 5.83Q61.01 7.01 62.00 7.82Q62.99 8.64 64.29 9.05Q65.59 9.46 67.10 9.46L67.10 9.46Q68.12 9.46 69.21 9.28Q70.31 9.10 71.47 8.72L71.47 8.72L72.03 9.87Q71.33 10.35 70.53 10.69Q69.73 11.03 68.87 11.24Q68.02 11.46 67.13 11.56Q66.24 11.66 65.39 11.66L65.39 11.66Q63.51 11.66 61.74 11.07Q59.97 10.48 58.59 9.30Q57.22 8.12 56.39 6.36Q55.56 4.60 55.56 2.24Z"/></g>
</svg>